<?xml version="1.0" encoding="utf-8"?>
<!-- Generator: Adobe Illustrator 19.1.0, SVG Export Plug-In . SVG Version: 6.00 Build 0)  -->
<svg version="1.1" id="Layer_1" xmlns="http://www.w3.org/2000/svg" xmlns:xlink="http://www.w3.org/1999/xlink" x="0px" y="0px"
	 viewBox="0 0 352.4 405.2" style="enable-background:new 0 0 352.4 405.2;" xml:space="preserve">
<style type="text/css">
	.st0{fill:#1B79BF;}
	.st1{fill:#1A61AC;}
</style>
<path class="st0" d="M311.3,113.7c13.3-10,27.1-21.7,40.8-31.1c-0.1,33.8-0.2,71.6,0,105.3c-25.5,19-50.4,38.8-75.8,57.9
	c-0.1-34-0.1-71.9,0-105.9C288.6,131.4,299.2,122.7,311.3,113.7z"/>
<path class="st1" d="M-0.2,81.6c9.7,6.7,18.8,15.3,28.2,22.3c15.8,12.4,32.1,23.3,47.8,36c-0.4,34.2,0.1,72.5-0.2,106.7
	c-25.4-19.1-50.3-38.9-75.8-57.9C-0.3,154.3-0.3,116-0.2,81.6z"/>
<path class="st1" d="M276.3,243.9c25.4-19.2,50.3-39,75.8-57.9c0.1,27.8,0,55.7,0,83.5C303.6,307,255,344.4,206.4,381.9
	c-10.3,7.7-20.2,15.9-30.6,23.3c-14.4-10.9-28.8-22-43.1-33c-3.8-3.1-8-5.7-11.5-9C172.9,323.5,224.8,284,276.3,243.9z"/>
<path class="st0" d="M0,0.2C58.5,45.2,118.2,91,176.8,136c-18,14.2-36.4,27.9-54.4,42c-15.2-11.8-31.6-24.2-46.6-36.2
	c-15.6-12.7-31.9-24.6-47.8-37c-9.5-7-18.5-14.6-28.2-21.3C0,55.8,0.1,28,0,0.2z"/>
<path class="st0" d="M-0.3,186.7c25.5,18.9,50.4,38.7,75.8,57.9c11,8.2,21.8,16.7,32.8,25c-18.3,13.9-36.5,27.8-54.8,41.7
	C36.6,298.6,20,285.5,3,272.8c-1.1-1.1-3.3-1.7-3.2-3.6C-0.3,241.7-0.3,214.2-0.3,186.7z"/>
<path class="st1" d="M269.1,63.5c27.8-21.1,55.2-42.6,83.2-63.5c0.8,13.7,0.3,27.4,0.4,41.1c-0.2,14.5,0,29-0.6,43.5
	c-13.8,9.3-26.6,20.1-39.8,30.1c-12.1,9-23.7,18.6-36,27.3c-28,21.2-55.8,42.7-83.7,64c-5.4,4.2-10.9,8.3-16.2,12.7
	c-18.8-13.3-36.6-27.8-55-41.7c18.1-14.1,36.4-27.8,54.4-42C206.9,111.2,238,87.3,269.1,63.5z"/>
</svg>
